<svg width="24" height="24" viewBox="0 0 24 24" fill="none" xmlns="http://www.w3.org/2000/svg">
<path d="M22.6668 21.3334V10.0001C22.6668 9.79309 22.6186 9.58894 22.5261 9.4038C22.4335 9.21866 22.2991 9.05761 22.1335 8.93341L12.8002 1.93341C12.5694 1.76032 12.2887 1.66675 12.0002 1.66675C11.7117 1.66675 11.431 1.76032 11.2002 1.93341L1.86683 8.93341C1.70123 9.05761 1.56683 9.21866 1.47426 9.4038C1.38169 9.58894 1.3335 9.79309 1.3335 10.0001V21.3334C1.3335 21.687 1.47397 22.0262 1.72402 22.2762C1.97407 22.5263 2.31321 22.6667 2.66683 22.6667H8.00016C8.35379 22.6667 8.69292 22.5263 8.94297 22.2762C9.19302 22.0262 9.3335 21.687 9.3335 21.3334V17.3334C9.3335 16.9798 9.47397 16.6407 9.72402 16.3906C9.97407 16.1406 10.3132 16.0001 10.6668 16.0001H13.3335C13.6871 16.0001 14.0263 16.1406 14.2763 16.3906C14.5264 16.6407 14.6668 16.9798 14.6668 17.3334V21.3334C14.6668 21.687 14.8073 22.0262 15.0574 22.2762C15.3074 22.5263 15.6465 22.6667 16.0002 22.6667H21.3335C21.6871 22.6667 22.0263 22.5263 22.2763 22.2762C22.5264 22.0262 22.6668 21.687 22.6668 21.3334Z" fill="#006738" stroke="#006738" stroke-width="2" stroke-linecap="round" stroke-linejoin="round"/>
</svg>
