<svg width="32" height="32" viewBox="0 0 32 32" fill="none" xmlns="http://www.w3.org/2000/svg">
<path d="M20.3194 29.6933H20.146C14.226 29.6933 11.3727 27.36 10.8794 22.1333C10.826 21.5866 11.226 21.0933 11.786 21.04C12.3327 20.9866 12.826 21.4 12.8794 21.9466C13.266 26.1333 15.2394 27.6933 20.1594 27.6933H20.3327C25.7594 27.6933 27.6794 25.7733 27.6794 20.3466V11.6533C27.6794 6.22664 25.7594 4.30664 20.3327 4.30664H20.1594C15.2127 4.30664 13.2394 5.89331 12.8794 10.16C12.8127 10.7066 12.3594 11.12 11.786 11.0666C11.226 11.0266 10.826 10.5333 10.866 9.98664C11.3194 4.67997 14.186 2.30664 20.146 2.30664H20.3194C26.866 2.30664 29.666 5.10664 29.666 11.6533V20.3466C29.666 26.8933 26.866 29.6933 20.3194 29.6933Z" fill="#A9A9A9"/>
<path d="M19.8398 17H2.6665C2.11984 17 1.6665 16.5467 1.6665 16C1.6665 15.4533 2.11984 15 2.6665 15H19.8398C20.3865 15 20.8398 15.4533 20.8398 16C20.8398 16.5467 20.3998 17 19.8398 17Z" fill="#A9A9A9"/>
<path d="M16.8658 21.4669C16.6125 21.4669 16.3591 21.3735 16.1591 21.1735C15.7725 20.7869 15.7725 20.1469 16.1591 19.7602L19.9191 16.0002L16.1591 12.2402C15.7725 11.8535 15.7725 11.2135 16.1591 10.8269C16.5458 10.4402 17.1858 10.4402 17.5725 10.8269L22.0391 15.2935C22.4258 15.6802 22.4258 16.3202 22.0391 16.7069L17.5725 21.1735C17.3725 21.3735 17.1191 21.4669 16.8658 21.4669Z" fill="#A9A9A9"/>
</svg>
