<svg width="22" height="26" viewBox="0 0 22 26" fill="none" xmlns="http://www.w3.org/2000/svg">
<path d="M6.99984 6.33333H14.9998M6.99984 11.6667H14.9998M6.99984 17H12.3332M1.6665 3.66667C1.6665 2.95942 1.94746 2.28115 2.44755 1.78105C2.94765 1.28095 3.62593 1 4.33317 1H17.6665C18.3737 1 19.052 1.28095 19.5521 1.78105C20.0522 2.28115 20.3332 2.95942 20.3332 3.66667V22.3333C20.3332 23.0406 20.0522 23.7189 19.5521 24.219C19.052 24.719 18.3737 25 17.6665 25H4.33317C3.62593 25 2.94765 24.719 2.44755 24.219C1.94746 23.7189 1.6665 23.0406 1.6665 22.3333V3.66667Z" stroke="#A9A9A9" stroke-width="1.5" stroke-linecap="round" stroke-linejoin="round"/>
</svg>
